<svg width="16" height="16" viewBox="0 0 16 16" fill="auto" xmlns="http://www.w3.org/2000/svg">
  <path
    d="M15.7673 1.11406C15.7539 0.884707 15.6568 0.668257 15.4943 0.505803C15.3319 0.34335 15.1154 0.246204 14.8861 0.23281C11.7923 0.050779 9.05871 0.415623 6.76105 1.3164C4.56261 2.17812 2.86808 3.51406 1.85871 5.17969C0.482144 7.4539 0.479019 10.2148 1.82355 12.8508L0.461831 14.2125C0.374625 14.2997 0.30545 14.4032 0.258254 14.5172C0.211059 14.6311 0.186768 14.7532 0.186768 14.8766C0.186768 14.9999 0.211059 15.122 0.258254 15.2359C0.30545 15.3499 0.374625 15.4534 0.461831 15.5406C0.637952 15.7167 0.876822 15.8157 1.12589 15.8157C1.24922 15.8157 1.37134 15.7914 1.48528 15.7442C1.59922 15.697 1.70275 15.6278 1.78996 15.5406L3.15168 14.1789C4.45949 14.8461 5.79855 15.1828 7.09308 15.1828C8.40833 15.1869 9.6991 14.8273 10.8228 14.1437C12.4884 13.1344 13.8243 11.4391 14.6861 9.2414C15.5845 6.94218 15.9493 4.20781 15.7673 1.11406ZM9.84855 12.5375C8.27902 13.4883 6.43761 13.5602 4.55793 12.7656L11.1626 6.16093C11.2498 6.07373 11.319 5.9702 11.3662 5.85626C11.4134 5.74232 11.4377 5.6202 11.4377 5.49687C11.4377 5.37354 11.4134 5.25142 11.3662 5.13748C11.319 5.02354 11.2498 4.92002 11.1626 4.83281C11.0754 4.7456 10.9719 4.67643 10.8579 4.62923C10.744 4.58204 10.6219 4.55775 10.4986 4.55775C10.3752 4.55775 10.2531 4.58204 10.1392 4.62923C10.0252 4.67643 9.92169 4.7456 9.83449 4.83281L3.23449 11.4422C2.4423 9.56719 2.51417 7.72109 3.46886 6.15156C5.10246 3.4539 8.9798 1.95469 13.9376 2.06953C14.0454 7.02578 12.5462 10.9039 9.84855 12.5375Z" />
</svg>